<svg width="32" height="32" viewBox="0 0 32 32" fill="none" xmlns="http://www.w3.org/2000/svg">
<path d="M6.46748 15.9997C6.46748 14.8928 6.63502 13.8194 6.9701 12.8467L1.80991 8.65381C0.670643 10.9683 0.000488281 13.6852 0.000488281 16.7376C0.000488281 19.354 0.637135 21.702 1.74289 23.7146L7.07062 19.2869C6.70204 18.2806 6.46748 17.1737 6.46748 15.9997Z" fill="white"/>
<path d="M15.9829 6.50732C17.1221 6.50732 19.1326 6.70857 21.009 7.94966L26.1692 3.68972C26.1692 3.68972 22.2153 0 15.9829 0C9.98497 0 4.55672 3.22012 1.80908 8.65406L6.96928 12.8469C8.27608 9.02303 11.8949 6.50732 15.9829 6.50732Z" fill="white"/>
<path d="M15.9835 25.5595C12.1636 25.5595 8.47773 23.0774 7.07041 19.3206L1.74268 23.7147C4.55733 28.9138 10.3877 31.9998 15.9835 31.9998C19.9374 31.9998 23.3552 30.658 26.0023 28.5448L20.7416 24.2514C19.4683 25.0228 17.8599 25.5595 15.9835 25.5595Z" fill="white"/>
<path d="M31.6654 13.0483H16.3188V19.2873H24.7963C24.7963 20.1259 23.389 22.6751 20.7419 24.2181L25.9691 28.5116C30.6267 24.7883 32.9052 18.6165 31.6654 13.0483Z" fill="white"/>
</svg>
