<svg width="71" height="80" viewBox="0 0 71 80" fill="none" xmlns="http://www.w3.org/2000/svg">
<path d="M5.53638 6.6436C5.53638 2.97444 8.51082 0 12.18 0H54.7423L70.5883 16.1111V73.3564C70.5883 77.0256 67.6138 80 63.9447 80H12.18C8.51082 80 5.53638 77.0256 5.53638 73.3564V6.6436Z" fill="#F8F9FA"/>
<path opacity="0.3" d="M14.6714 11.9032C14.6714 10.3744 15.9107 9.13501 17.4396 9.13501H58.6852C60.214 9.13501 61.4534 10.3744 61.4534 11.9032V68.0969C61.4534 69.6258 60.214 70.8651 58.6852 70.8651H17.4396C15.9107 70.8651 14.6714 69.6258 14.6714 68.0969V11.9032Z" fill="#C3D2EE"/>
<path d="M70.5881 16.0554L54.8096 0.276855V10.5191C54.8096 13.5767 57.2883 16.0554 60.3459 16.0554H70.5881Z" fill="#879DB4"/>
<path d="M0 37.6472C0 35.5068 1.73509 33.7717 3.87543 33.7717H37.9239C40.0642 33.7717 41.7993 35.5068 41.7993 37.6472V66.1593C41.7993 68.2996 40.0642 70.0347 37.9239 70.0347H3.87543C1.73509 70.0347 0 68.2996 0 66.1593V37.6472Z" fill="url(#paint0_linear_17_4279)"/>
<defs>
<linearGradient id="paint0_linear_17_4279" x1="20.8997" y1="33.7717" x2="20.8997" y2="70.0347" gradientUnits="userSpaceOnUse">
<stop stop-color="#9AADD2"/>
<stop offset="1" stop-color="#7A8CAF"/>
</linearGradient>
</defs>
</svg>
