<svg width="71" height="80" viewBox="0 0 71 80" fill="none" xmlns="http://www.w3.org/2000/svg">
<path d="M5.53613 6.6436C5.53613 2.97444 8.51057 0 12.1797 0H54.7421L70.588 16.1111V73.3564C70.588 77.0256 67.6136 80 63.9444 80H12.1797C8.51057 80 5.53613 77.0256 5.53613 73.3564V6.6436Z" fill="#F8F9FA"/>
<path d="M5.53613 6.6436C5.53613 2.97444 8.51057 0 12.1797 0H54.7421L70.588 16.1111V73.3564C70.588 77.0256 67.6136 80 63.9444 80H12.1797C8.51057 80 5.53613 77.0256 5.53613 73.3564V6.6436Z" fill="#7A8CAF"/>
<path opacity="0.3" d="M14.6714 11.9031C14.6714 10.3743 15.9107 9.13495 17.4396 9.13495H58.6852C60.214 9.13495 61.4534 10.3743 61.4534 11.9031V68.0969C61.4534 69.6257 60.214 70.8651 58.6852 70.8651H17.4396C15.9107 70.8651 14.6714 69.6257 14.6714 68.0969V11.9031Z" fill="#D7E4FF"/>
<path d="M70.5881 16.0554L54.8096 0.27681V10.519C54.8096 13.5767 57.2883 16.0554 60.3459 16.0554H70.5881Z" fill="#DBE5EE"/>
<path d="M0 37.6471C0 35.5067 1.73509 33.7716 3.87543 33.7716H37.9239C40.0642 33.7716 41.7993 35.5067 41.7993 37.6471V66.1592C41.7993 68.2995 40.0642 70.0346 37.9239 70.0346H3.87543C1.73509 70.0346 0 68.2995 0 66.1592V37.6471Z" fill="url(#paint0_linear_17_4971)"/>
<path d="M0 37.6471C0 35.5067 1.73509 33.7716 3.87543 33.7716H37.9239C40.0642 33.7716 41.7993 35.5067 41.7993 37.6471V66.1592C41.7993 68.2995 40.0642 70.0346 37.9239 70.0346H3.87543C1.73509 70.0346 0 68.2995 0 66.1592V37.6471Z" fill="url(#paint1_linear_17_4971)"/>
<defs>
<linearGradient id="paint0_linear_17_4971" x1="20.8997" y1="33.7716" x2="20.8997" y2="70.0346" gradientUnits="userSpaceOnUse">
<stop stop-color="#9AADD2"/>
<stop offset="1" stop-color="#7A8CAF"/>
</linearGradient>
<linearGradient id="paint1_linear_17_4971" x1="20.8997" y1="33.7716" x2="20.8997" y2="70.0346" gradientUnits="userSpaceOnUse">
<stop stop-color="#2B5AB5"/>
<stop offset="1" stop-color="#1C386D"/>
</linearGradient>
</defs>
</svg>
