<svg width="96" height="80" viewBox="0 0 96 80" fill="none" xmlns="http://www.w3.org/2000/svg">
<g clip-path="url(#clip0_17_4233)">
<path d="M83.4518 27.4759L91.5662 27.4941C94.7343 27.4941 96.6403 30.0312 95.7512 33.0949C92.9699 42.633 90.1886 52.1693 87.4073 61.7039C86.4009 65.151 85.3214 68.5824 84.3905 72.0477C83.504 75.3122 80.4324 77.5103 77.0896 77.4999C54.569 77.4425 32.0485 77.4712 9.52789 77.4686C9.17066 77.4686 8.81083 77.4477 8.45361 77.4347C11.4678 76.6238 13.4078 74.7594 14.19 71.6983C14.5055 70.4754 14.9175 69.2812 15.2695 68.0687C16.9783 62.1915 18.6827 56.3152 20.3827 50.4397C22.0202 44.8128 23.7359 39.2068 25.2795 33.5538C26.3694 29.5618 29.1907 27.4159 33.1957 27.4654C39.1251 27.5384 45.0571 27.4863 50.989 27.4837L83.4518 27.4759Z" fill="url(#paint0_linear_17_4233)"/>
<path d="M83.4516 27.476L50.994 27.4942C45.062 27.4942 39.1301 27.549 33.2007 27.476C29.2087 27.4264 26.3744 29.5619 25.2845 33.5644C23.7409 39.2173 22.0252 44.8233 20.3877 50.4502C18.6807 56.3257 16.9763 62.202 15.2745 68.0792C14.9225 69.2917 14.5105 70.4859 14.195 71.7088C13.4127 74.7595 11.4728 76.6239 8.45858 77.4452C4.42224 77.659 1.49929 75.959 0.406763 72.6736C0.145983 71.8721 0.0148288 71.0341 0.0182522 70.1913C0.00608406 49.761 0 29.3333 0 8.90828C0 5.15876 2.67264 2.51741 6.41434 2.50176C14.2037 2.50176 21.993 2.50176 29.7823 2.50176C31.0747 2.47512 32.3555 2.75073 33.5226 3.30664C34.6896 3.86255 35.7107 4.68338 36.5044 5.70372C37.7194 7.19518 38.9554 8.66057 40.1548 10.1703C41.6228 12.0424 43.4897 12.9238 45.8912 12.9133C56.1906 12.8716 66.4901 12.8925 76.7895 12.8977C80.0958 12.8977 82.5494 14.7229 83.269 17.7371C83.3923 18.3418 83.4466 18.9585 83.4307 19.5754C83.4385 22.2089 83.4385 24.8424 83.4516 27.476Z" fill="url(#paint1_linear_17_4233)"/>
</g>
<defs>
<linearGradient id="paint0_linear_17_4233" x1="52.2118" y1="76.9997" x2="52.2118" y2="26.9643" gradientUnits="userSpaceOnUse">
<stop stop-color="#0080DC"/>
<stop offset="0.5" stop-color="#0D9EFF"/>
<stop offset="1" stop-color="#0DB6FF"/>
</linearGradient>
<linearGradient id="paint1_linear_17_4233" x1="41.7258" y1="76.7137" x2="41.7258" y2="1.75048" gradientUnits="userSpaceOnUse">
<stop stop-color="#016CBA"/>
<stop offset="1" stop-color="#0080DC"/>
</linearGradient>
<clipPath id="clip0_17_4233">
<rect width="95.9697" height="80" fill="white"/>
</clipPath>
</defs>
</svg>
