<svg width="97" height="80" viewBox="0 0 97 80" fill="none" xmlns="http://www.w3.org/2000/svg">
<g clip-path="url(#clip0_17_4976)">
<path d="M83.7609 27.476L91.8753 27.4942C95.0434 27.4942 96.9494 30.0313 96.0603 33.0951C93.279 42.6331 90.4977 52.1694 87.7164 61.704C86.7099 65.1511 85.6304 68.5825 84.6996 72.0478C83.813 75.3123 80.7415 77.5104 77.3987 77.5C54.8781 77.4426 32.3576 77.4713 9.83697 77.4687C9.47975 77.4687 9.11992 77.4478 8.7627 77.4348C11.7769 76.6239 13.7169 74.7596 14.4991 71.6984C14.8146 70.4755 15.2266 69.2813 15.5786 68.0688C17.2873 62.1916 18.9917 56.3153 20.6918 50.4398C22.3293 44.813 24.045 39.2069 25.5886 33.554C26.6785 29.562 29.4998 27.416 33.5048 27.4656C39.4342 27.5386 45.3661 27.4864 51.2981 27.4838L83.7609 27.476Z" fill="url(#paint0_linear_17_4976)"/>
<path d="M83.7609 27.476L91.8753 27.4942C95.0434 27.4942 96.9494 30.0313 96.0603 33.0951C93.279 42.6331 90.4977 52.1694 87.7164 61.704C86.7099 65.1511 85.6304 68.5825 84.6996 72.0478C83.813 75.3123 80.7415 77.5104 77.3987 77.5C54.8781 77.4426 32.3576 77.4713 9.83697 77.4687C9.47975 77.4687 9.11992 77.4478 8.7627 77.4348C11.7769 76.6239 13.7169 74.7596 14.4991 71.6984C14.8146 70.4755 15.2266 69.2813 15.5786 68.0688C17.2873 62.1916 18.9917 56.3153 20.6918 50.4398C22.3293 44.813 24.045 39.2069 25.5886 33.554C26.6785 29.562 29.4998 27.416 33.5048 27.4656C39.4342 27.5386 45.3661 27.4864 51.2981 27.4838L83.7609 27.476Z" fill="black" fill-opacity="0.2"/>
<path d="M83.7606 27.476L51.3031 27.4942C45.3711 27.4942 39.4391 27.549 33.5098 27.476C29.5178 27.4264 26.6835 29.5619 25.5936 33.5644C24.05 39.2173 22.3342 44.8233 20.6968 50.4502C18.9898 56.3257 17.2853 62.202 15.5835 68.0792C15.2315 69.2917 14.8196 70.4859 14.5041 71.7088C13.7218 74.7595 11.7819 76.6239 8.76766 77.4452C4.73132 77.659 1.80837 75.959 0.715845 72.6736C0.455065 71.8721 0.323911 71.0341 0.327334 70.1913C0.315166 49.761 0.309082 29.3333 0.309082 8.90828C0.309082 5.15876 2.98172 2.51741 6.72342 2.50176C14.5128 2.50176 22.3021 2.50176 30.0914 2.50176C31.3838 2.47512 32.6646 2.75073 33.8316 3.30664C34.9987 3.86255 36.0197 4.68338 36.8134 5.70372C38.0285 7.19518 39.2644 8.66057 40.4639 10.1703C41.9319 12.0424 43.7988 12.9238 46.2003 12.9133C56.4997 12.8716 66.7992 12.8925 77.0986 12.8977C80.4049 12.8977 82.8585 14.7229 83.5781 17.7371C83.7014 18.3418 83.7557 18.9585 83.7398 19.5754C83.7476 22.2089 83.7476 24.8424 83.7606 27.476Z" fill="url(#paint1_linear_17_4976)"/>
<path d="M83.7606 27.476L51.3031 27.4942C45.3711 27.4942 39.4391 27.549 33.5098 27.476C29.5178 27.4264 26.6835 29.5619 25.5936 33.5644C24.05 39.2173 22.3342 44.8233 20.6968 50.4502C18.9898 56.3257 17.2853 62.202 15.5835 68.0792C15.2315 69.2917 14.8196 70.4859 14.5041 71.7088C13.7218 74.7595 11.7819 76.6239 8.76766 77.4452C4.73132 77.659 1.80837 75.959 0.715845 72.6736C0.455065 71.8721 0.323911 71.0341 0.327334 70.1913C0.315166 49.761 0.309082 29.3333 0.309082 8.90828C0.309082 5.15876 2.98172 2.51741 6.72342 2.50176C14.5128 2.50176 22.3021 2.50176 30.0914 2.50176C31.3838 2.47512 32.6646 2.75073 33.8316 3.30664C34.9987 3.86255 36.0197 4.68338 36.8134 5.70372C38.0285 7.19518 39.2644 8.66057 40.4639 10.1703C41.9319 12.0424 43.7988 12.9238 46.2003 12.9133C56.4997 12.8716 66.7992 12.8925 77.0986 12.8977C80.4049 12.8977 82.8585 14.7229 83.5781 17.7371C83.7014 18.3418 83.7557 18.9585 83.7398 19.5754C83.7476 22.2089 83.7476 24.8424 83.7606 27.476Z" fill="black" fill-opacity="0.2"/>
</g>
<defs>
<linearGradient id="paint0_linear_17_4976" x1="52.5208" y1="76.9998" x2="52.5209" y2="26.9644" gradientUnits="userSpaceOnUse">
<stop stop-color="#0080DC"/>
<stop offset="0.5" stop-color="#0D9EFF"/>
<stop offset="1" stop-color="#0DB6FF"/>
</linearGradient>
<linearGradient id="paint1_linear_17_4976" x1="42.0349" y1="76.7137" x2="42.0349" y2="1.75048" gradientUnits="userSpaceOnUse">
<stop stop-color="#016CBA"/>
<stop offset="1" stop-color="#0080DC"/>
</linearGradient>
<clipPath id="clip0_17_4976">
<rect width="95.9697" height="80" fill="white" transform="translate(0.309082)"/>
</clipPath>
</defs>
</svg>
