<svg width="71" height="80" viewBox="0 0 71 80" fill="none" xmlns="http://www.w3.org/2000/svg">
<path d="M5.53638 6.6436C5.53638 2.97444 8.51082 0 12.18 0H54.7423L70.5883 16.1111V73.3564C70.5883 77.0256 67.6138 80 63.9447 80H12.18C8.51082 80 5.53638 77.0256 5.53638 73.3564V6.6436Z" fill="url(#paint0_linear_17_4261)"/>
<path d="M70.5882 16.0554L54.8097 0.276855V10.5191C54.8097 13.5767 57.2884 16.0554 60.346 16.0554H70.5882Z" fill="#879DB4"/>
<path d="M14.6713 19.9308C14.6713 18.7078 15.6627 17.7163 16.8858 17.7163H33.218C34.441 17.7163 35.4325 18.7078 35.4325 19.9308V21.0381C35.4325 22.2612 34.441 23.2526 33.218 23.2526H16.8858C15.6627 23.2526 14.6713 22.2612 14.6713 21.0381V19.9308Z" fill="#595F6A"/>
<path d="M14.6713 34.8789C14.6713 33.6559 15.6627 32.6644 16.8858 32.6644H33.218C34.441 32.6644 35.4325 33.6559 35.4325 34.8789V35.9862C35.4325 37.2093 34.441 38.2007 33.218 38.2007H16.8858C15.6627 38.2007 14.6713 37.2093 14.6713 35.9862V34.8789Z" fill="#595F6A"/>
<path d="M14.6713 49.827C14.6713 48.604 15.6627 47.6125 16.8858 47.6125H33.218C34.441 47.6125 35.4325 48.604 35.4325 49.827V50.9343C35.4325 52.1574 34.441 53.1488 33.218 53.1488H16.8858C15.6627 53.1488 14.6713 52.1574 14.6713 50.9343V49.827Z" fill="#595F6A"/>
<path d="M14.6713 64.7751C14.6713 63.5521 15.6627 62.5606 16.8858 62.5606H33.218C34.441 62.5606 35.4325 63.5521 35.4325 64.7751V65.8824C35.4325 67.1055 34.441 68.0969 33.218 68.0969H16.8858C15.6627 68.0969 14.6713 67.1055 14.6713 65.8824V64.7751Z" fill="#595F6A"/>
<path d="M40.692 19.9308C40.692 18.7078 41.6835 17.7163 42.9066 17.7163H59.2387C60.4618 17.7163 61.4533 18.7078 61.4533 19.9308V21.0381C61.4533 22.2612 60.4618 23.2526 59.2387 23.2526H42.9066C41.6835 23.2526 40.692 22.2612 40.692 21.0381V19.9308Z" fill="#595F6A"/>
<path d="M40.692 34.8789C40.692 33.6559 41.6835 32.6644 42.9066 32.6644H59.2387C60.4618 32.6644 61.4533 33.6559 61.4533 34.8789V35.9862C61.4533 37.2093 60.4618 38.2007 59.2387 38.2007H42.9066C41.6835 38.2007 40.692 37.2093 40.692 35.9862V34.8789Z" fill="#595F6A"/>
<path d="M40.692 49.827C40.692 48.604 41.6835 47.6125 42.9066 47.6125H59.2387C60.4618 47.6125 61.4533 48.604 61.4533 49.827V50.9343C61.4533 52.1574 60.4618 53.1488 59.2387 53.1488H42.9066C41.6835 53.1488 40.692 52.1574 40.692 50.9343V49.827Z" fill="#595F6A"/>
<path d="M40.692 64.7751C40.692 63.5521 41.6835 62.5606 42.9066 62.5606H59.2387C60.4618 62.5606 61.4533 63.5521 61.4533 64.7751V65.8824C61.4533 67.1055 60.4618 68.0969 59.2387 68.0969H42.9066C41.6835 68.0969 40.692 67.1055 40.692 65.8824V64.7751Z" fill="#595F6A"/>
<path d="M0 37.6472C0 35.5068 1.73509 33.7717 3.87543 33.7717H37.9239C40.0642 33.7717 41.7993 35.5068 41.7993 37.6472V66.1593C41.7993 68.2996 40.0642 70.0347 37.9239 70.0347H3.87543C1.73509 70.0347 0 68.2996 0 66.1593V37.6472Z" fill="url(#paint1_linear_17_4261)"/>
<path d="M17.1007 61.4532H12.583L18.3762 51.5676L12.769 42.5588H17.2867L20.9539 49.0164L24.7275 42.5588H29.3249L23.5317 51.5676L29.4843 61.4532H24.887L20.9539 54.4642L17.1007 61.4532Z" fill="white"/>
<defs>
<linearGradient id="paint0_linear_17_4261" x1="38.0623" y1="0" x2="38.0623" y2="80" gradientUnits="userSpaceOnUse">
<stop offset="0.5" stop-color="#F8F9FA"/>
<stop offset="1" stop-color="#E4ECF3"/>
</linearGradient>
<linearGradient id="paint1_linear_17_4261" x1="20.8997" y1="33.7717" x2="20.8997" y2="70.0347" gradientUnits="userSpaceOnUse">
<stop stop-color="#0ACE82"/>
<stop offset="1" stop-color="#00AF68"/>
</linearGradient>
</defs>
</svg>
