<svg width="98" height="80" viewBox="0 0 98 80" fill="none" xmlns="http://www.w3.org/2000/svg">
<g clip-path="url(#clip0_17_4981)">
<path d="M0.906738 9.75807C0.906738 5.74955 4.15628 2.5 8.1648 2.5H90.4229C94.4314 2.5 97.6809 5.74955 97.6809 9.75806V70.2419C97.6809 74.2505 94.4314 77.5 90.4229 77.5H8.1648C4.15628 77.5 0.906738 74.2505 0.906738 70.2419V9.75807Z" fill="url(#paint0_linear_17_4981)"/>
<path d="M0.906738 9.75807C0.906738 5.74955 4.15628 2.5 8.1648 2.5H90.4229C94.4314 2.5 97.6809 5.74955 97.6809 9.75806V70.2419C97.6809 74.2505 94.4314 77.5 90.4229 77.5H8.1648C4.15628 77.5 0.906738 74.2505 0.906738 70.2419V9.75807Z" fill="#7A8CAF"/>
<path d="M64.4089 28.6313C66.7184 26.2236 70.5412 26.1406 72.953 28.4457L89.8182 44.5651V65.7056C89.8182 68.2109 87.7872 70.2419 85.2819 70.2419H24.4956L64.4089 28.6313Z" fill="#B6C5E6"/>
<path d="M30.9388 35.598C28.6286 33.1855 24.8001 33.1023 22.3874 35.4123L8.76953 48.4504V65.7056C8.76953 68.2109 10.8005 70.2419 13.3058 70.2419H64.1123L30.9388 35.598Z" fill="#C4D2EF"/>
<circle cx="44.6063" cy="22.6109" r="9.52621" fill="#C4D2EF"/>
</g>
<defs>
<linearGradient id="paint0_linear_17_4981" x1="49.2938" y1="2.5" x2="49.2938" y2="77.5" gradientUnits="userSpaceOnUse">
<stop offset="0.5" stop-color="#F8F9FA"/>
<stop offset="1" stop-color="#E4ECF3"/>
</linearGradient>
<clipPath id="clip0_17_4981">
<rect width="96.7742" height="80" fill="white" transform="translate(0.906738)"/>
</clipPath>
</defs>
</svg>
