<svg width="71" height="80" viewBox="0 0 71 80" fill="none" xmlns="http://www.w3.org/2000/svg">
<path d="M0 6.6436C0 2.97444 2.97444 0 6.6436 0H49.2059L65.0519 16.1111V73.3564C65.0519 77.0256 62.0775 80 58.4083 80H6.6436C2.97444 80 0 77.0256 0 73.3564V6.6436Z" fill="url(#paint0_linear_17_4959)"/>
<path d="M0 6.6436C0 2.97444 2.97444 0 6.6436 0H49.2059L65.0519 16.1111V73.3564C65.0519 77.0256 62.0775 80 58.4083 80H6.6436C2.97444 80 0 77.0256 0 73.3564V6.6436Z" fill="#7A8CAF"/>
<path d="M65.052 16.0553L49.2734 0.276794V10.519C49.2734 13.5766 51.7521 16.0553 54.8098 16.0553H65.052Z" fill="#DBE5EE"/>
<path d="M70.5884 37.6471C70.5884 35.5067 68.8533 33.7716 66.7129 33.7716H32.6645C30.5242 33.7716 28.7891 35.5067 28.7891 37.6471V66.1592C28.7891 68.2995 30.5242 70.0346 32.6645 70.0346H66.7129C68.8533 70.0346 70.5884 68.2995 70.5884 66.1592V37.6471Z" fill="url(#paint1_linear_17_4959)"/>
<path fill-rule="evenodd" clip-rule="evenodd" d="M16.9889 6.70804C17.4674 5.83911 18.3184 5.39795 19.3723 5.39795C19.819 5.39795 20.249 5.50237 20.6297 5.73891C21.0084 5.9742 21.2814 6.30487 21.4722 6.66987C21.8373 7.36856 21.9367 8.25996 21.9205 9.16411C21.8893 10.9106 21.409 13.1953 20.7615 15.5718C21.232 16.5137 21.7469 17.4456 22.2773 18.3219C23.7058 20.6821 25.2862 23.0132 26.8517 24.8488C30.418 24.2059 32.5798 24.5631 34.0164 24.9462C34.7949 25.1539 35.3999 25.6558 35.5897 26.4244C35.7606 27.1166 35.5352 27.8014 35.2172 28.3239C34.5805 29.3698 33.2482 30.3115 31.6906 30.3115C30.6325 30.3115 29.595 29.8489 28.6402 29.1933C27.804 28.6192 26.9651 27.8514 26.1434 26.9678C24.3908 27.3564 22.2791 27.9944 19.727 28.9985C18.0367 29.6636 16.5635 30.2764 15.2858 30.845C14.241 32.9748 13.1538 34.8145 12.1737 36.1761C11.6607 36.8888 11.162 37.4915 10.6997 37.9398C10.2791 38.3477 9.74722 38.7713 9.16498 38.8771C8.66827 38.9674 8.16721 38.9606 7.70464 38.7949C7.22587 38.6233 6.85078 38.3029 6.60108 37.8815C6.13269 37.0911 6.16023 36.0578 6.38672 35.0763C6.62877 34.0274 7.44879 33.1054 8.66308 32.2176C9.84563 31.3531 11.5419 30.4213 13.8464 29.3683C14.6016 27.7731 15.3296 26.0182 15.9654 24.1814C16.8566 21.6069 17.8964 18.5845 18.6978 15.7603C17.6409 13.5372 16.8112 11.2312 16.6149 9.40166C16.5133 8.45483 16.5629 7.4815 16.9889 6.70804ZM19.4819 12.6827C19.7821 11.3111 19.9658 10.0962 19.9831 9.12947C19.9973 8.3317 19.8937 7.83311 19.7548 7.56728C19.6935 7.45003 19.6393 7.40482 19.6071 7.38479C19.5768 7.366 19.5123 7.33567 19.3723 7.33567C18.9137 7.33567 18.7736 7.48404 18.6862 7.64275C18.5463 7.89693 18.4551 8.38934 18.5416 9.19494C18.6459 10.1669 18.9825 11.373 19.4819 12.6827ZM19.9839 18.2369C19.2802 20.5188 18.4872 22.8198 17.7965 24.8152C17.3902 25.989 16.9479 27.1299 16.4851 28.2198C17.2729 27.8911 18.1161 27.55 19.0176 27.1953C21.1919 26.3399 23.0791 25.7331 24.7238 25.3145C23.2865 23.5185 21.882 21.4109 20.6196 19.3252C20.4046 18.9701 20.1922 18.6065 19.9839 18.2369ZM12.3649 32.2419C11.2829 32.807 10.4432 33.3166 9.80668 33.7819C8.70756 34.5854 8.35734 35.1544 8.27482 35.512C8.08609 36.3298 8.18283 36.7498 8.26808 36.8936C8.29519 36.9394 8.31802 36.9563 8.35829 36.9707C8.41474 36.991 8.55383 37.0188 8.81836 36.9707C8.81186 36.9719 8.81371 36.9709 8.82404 36.9654C8.86478 36.9439 9.03746 36.8526 9.35072 36.5488C9.70167 36.2085 10.1258 35.7043 10.601 35.0441C11.1521 34.2785 11.7518 33.3313 12.3649 32.2419ZM28.4707 26.5623C28.9068 26.9695 29.3303 27.3166 29.737 27.5959C30.5372 28.1453 31.1878 28.3737 31.6906 28.3737C32.486 28.3737 33.2298 27.8621 33.562 27.3163C33.7062 27.0794 33.7121 26.9385 33.7097 26.8996C33.6913 26.8855 33.6369 26.8505 33.5171 26.8185C32.5037 26.5483 30.9708 26.2589 28.4707 26.5623Z" fill="#D65242"/>
<path fill-rule="evenodd" clip-rule="evenodd" d="M16.9889 6.70804C17.4674 5.83911 18.3184 5.39795 19.3723 5.39795C19.819 5.39795 20.249 5.50237 20.6297 5.73891C21.0084 5.9742 21.2814 6.30487 21.4722 6.66987C21.8373 7.36856 21.9367 8.25996 21.9205 9.16411C21.8893 10.9106 21.409 13.1953 20.7615 15.5718C21.232 16.5137 21.7469 17.4456 22.2773 18.3219C23.7058 20.6821 25.2862 23.0132 26.8517 24.8488C30.418 24.2059 32.5798 24.5631 34.0164 24.9462C34.7949 25.1539 35.3999 25.6558 35.5897 26.4244C35.7606 27.1166 35.5352 27.8014 35.2172 28.3239C34.5805 29.3698 33.2482 30.3115 31.6906 30.3115C30.6325 30.3115 29.595 29.8489 28.6402 29.1933C27.804 28.6192 26.9651 27.8514 26.1434 26.9678C24.3908 27.3564 22.2791 27.9944 19.727 28.9985C18.0367 29.6636 16.5635 30.2764 15.2858 30.845C14.241 32.9748 13.1538 34.8145 12.1737 36.1761C11.6607 36.8888 11.162 37.4915 10.6997 37.9398C10.2791 38.3477 9.74722 38.7713 9.16498 38.8771C8.66827 38.9674 8.16721 38.9606 7.70464 38.7949C7.22587 38.6233 6.85078 38.3029 6.60108 37.8815C6.13269 37.0911 6.16023 36.0578 6.38672 35.0763C6.62877 34.0274 7.44879 33.1054 8.66308 32.2176C9.84563 31.3531 11.5419 30.4213 13.8464 29.3683C14.6016 27.7731 15.3296 26.0182 15.9654 24.1814C16.8566 21.6069 17.8964 18.5845 18.6978 15.7603C17.6409 13.5372 16.8112 11.2312 16.6149 9.40166C16.5133 8.45483 16.5629 7.4815 16.9889 6.70804ZM19.4819 12.6827C19.7821 11.3111 19.9658 10.0962 19.9831 9.12947C19.9973 8.3317 19.8937 7.83311 19.7548 7.56728C19.6935 7.45003 19.6393 7.40482 19.6071 7.38479C19.5768 7.366 19.5123 7.33567 19.3723 7.33567C18.9137 7.33567 18.7736 7.48404 18.6862 7.64275C18.5463 7.89693 18.4551 8.38934 18.5416 9.19494C18.6459 10.1669 18.9825 11.373 19.4819 12.6827ZM19.9839 18.2369C19.2802 20.5188 18.4872 22.8198 17.7965 24.8152C17.3902 25.989 16.9479 27.1299 16.4851 28.2198C17.2729 27.8911 18.1161 27.55 19.0176 27.1953C21.1919 26.3399 23.0791 25.7331 24.7238 25.3145C23.2865 23.5185 21.882 21.4109 20.6196 19.3252C20.4046 18.9701 20.1922 18.6065 19.9839 18.2369ZM12.3649 32.2419C11.2829 32.807 10.4432 33.3166 9.80668 33.7819C8.70756 34.5854 8.35734 35.1544 8.27482 35.512C8.08609 36.3298 8.18283 36.7498 8.26808 36.8936C8.29519 36.9394 8.31802 36.9563 8.35829 36.9707C8.41474 36.991 8.55383 37.0188 8.81836 36.9707C8.81186 36.9719 8.81371 36.9709 8.82404 36.9654C8.86478 36.9439 9.03746 36.8526 9.35072 36.5488C9.70167 36.2085 10.1258 35.7043 10.601 35.0441C11.1521 34.2785 11.7518 33.3313 12.3649 32.2419ZM28.4707 26.5623C28.9068 26.9695 29.3303 27.3166 29.737 27.5959C30.5372 28.1453 31.1878 28.3737 31.6906 28.3737C32.486 28.3737 33.2298 27.8621 33.562 27.3163C33.7062 27.0794 33.7121 26.9385 33.7097 26.8996C33.6913 26.8855 33.6369 26.8505 33.5171 26.8185C32.5037 26.5483 30.9708 26.2589 28.4707 26.5623Z" fill="#C4D2EF"/>
<path d="M37.2122 58.4083H34.5083V45.4184H39.7335C42.5288 45.4184 44.3375 47.081 44.3375 49.6022C44.3375 52.1234 42.5288 53.7677 39.8248 53.7677H37.2122V58.4083ZM37.2122 47.5012V51.685H39.3316C40.6835 51.685 41.597 50.8446 41.597 49.6022C41.597 48.3416 40.7018 47.5012 39.3316 47.5012H37.2122Z" fill="white"/>
<path d="M50.3664 58.4083H45.7807V45.4184H50.3847C54.532 45.4184 56.7609 47.7752 56.7609 51.9225C56.7609 56.0515 54.532 58.4083 50.3664 58.4083ZM48.4298 47.6473V56.1976H50.3482C52.7781 56.1976 54.0387 54.6447 54.0387 51.9225C54.0387 49.2003 52.7781 47.6473 50.3482 47.6473H48.4298Z" fill="white"/>
<path d="M61.1491 58.4083H58.4269V45.4184H66.0454V47.7752H61.1491V51.1734H64.9675V53.2745H61.1491V58.4083Z" fill="white"/>
<defs>
<linearGradient id="paint0_linear_17_4959" x1="32.526" y1="0" x2="32.526" y2="80" gradientUnits="userSpaceOnUse">
<stop offset="0.5" stop-color="#F8F9FA"/>
<stop offset="1" stop-color="#E4ECF3"/>
</linearGradient>
<linearGradient id="paint1_linear_17_4959" x1="49.6887" y1="33.7716" x2="49.6887" y2="70.0346" gradientUnits="userSpaceOnUse">
<stop stop-color="#FF432D"/>
<stop offset="1" stop-color="#B53121"/>
</linearGradient>
</defs>
</svg>
