<svg width="71" height="80" viewBox="0 0 71 80" fill="none" xmlns="http://www.w3.org/2000/svg">
<path d="M0 6.6436C0 2.97444 2.97444 0 6.6436 0H49.2059L65.0519 16.1111V73.3564C65.0519 77.0256 62.0775 80 58.4083 80H6.6436C2.97444 80 0 77.0256 0 73.3564V6.6436Z" fill="url(#paint0_linear_17_4267)"/>
<path d="M65.052 16.0554L49.2734 0.276855V10.5191C49.2734 13.5767 51.7521 16.0554 54.8098 16.0554H65.052Z" fill="#879DB4"/>
<path d="M70.5881 37.6472C70.5881 35.5068 68.853 33.7717 66.7127 33.7717H32.6642C30.5239 33.7717 28.7888 35.5068 28.7888 37.6472V66.1593C28.7888 68.2996 30.5239 70.0347 32.6643 70.0347H66.7127C68.853 70.0347 70.5881 68.2996 70.5881 66.1593V37.6472Z" fill="url(#paint1_linear_17_4267)"/>
<path fill-rule="evenodd" clip-rule="evenodd" d="M16.9886 6.70804C17.4671 5.83911 18.3181 5.39795 19.372 5.39795C19.8187 5.39795 20.2488 5.50237 20.6295 5.73891C21.0082 5.9742 21.2812 6.30487 21.4719 6.66987C21.837 7.36856 21.9364 8.25996 21.9202 9.16411C21.889 10.9106 21.4088 13.1953 20.7613 15.5718C21.2318 16.5137 21.7466 17.4456 22.277 18.3219C23.7056 20.6821 25.286 23.0132 26.8514 24.8488C30.4178 24.2059 32.5795 24.5631 34.0161 24.9462C34.7947 25.1539 35.3997 25.6558 35.5895 26.4244C35.7604 27.1166 35.5349 27.8014 35.2169 28.3239C34.5803 29.3698 33.2479 30.3115 31.6904 30.3115C30.6323 30.3115 29.5947 29.8489 28.64 29.1933C27.8038 28.6192 26.9649 27.8514 26.1432 26.9678C24.3905 27.3564 22.2788 27.9944 19.7268 28.9985C18.0364 29.6636 16.5633 30.2764 15.2855 30.845C14.2408 32.9748 13.1535 34.8145 12.1734 36.1761C11.6605 36.8888 11.1618 37.4915 10.6995 37.9398C10.2789 38.3477 9.74698 38.7713 9.16474 38.8771C8.66802 38.9674 8.16697 38.9606 7.70439 38.7949C7.22563 38.6233 6.85054 38.3029 6.60083 37.8815C6.13245 37.0911 6.15998 36.0578 6.38648 35.0763C6.62852 34.0274 7.44855 33.1054 8.66283 32.2176C9.84539 31.3531 11.5416 30.4213 13.8462 29.3683C14.6013 27.7731 15.3293 26.0182 15.9651 24.1814C16.8563 21.6069 17.8961 18.5845 18.6976 15.7603C17.6407 13.5372 16.811 11.2312 16.6147 9.40166C16.5131 8.45483 16.5627 7.4815 16.9886 6.70804ZM19.4816 12.6827C19.7818 11.3111 19.9656 10.0962 19.9828 9.12947C19.9971 8.3317 19.8935 7.83311 19.7545 7.56728C19.6933 7.45003 19.6391 7.40482 19.6068 7.38479C19.5766 7.366 19.5121 7.33567 19.372 7.33567C18.9134 7.33567 18.7734 7.48404 18.686 7.64275C18.546 7.89693 18.4549 8.38934 18.5413 9.19494C18.6456 10.1669 18.9822 11.373 19.4816 12.6827ZM19.9837 18.2369C19.28 20.5188 18.487 22.8198 17.7963 24.8152C17.39 25.989 16.9477 27.1299 16.4848 28.2198C17.2727 27.8911 18.1159 27.55 19.0173 27.1953C21.1916 26.3399 23.0789 25.7331 24.7236 25.3145C23.2863 23.5185 21.8817 21.4109 20.6193 19.3252C20.4044 18.9701 20.192 18.6065 19.9837 18.2369ZM12.3646 32.2419C11.2826 32.807 10.4429 33.3166 9.80643 33.7819C8.70732 34.5854 8.35709 35.1544 8.27457 35.512C8.08584 36.3298 8.18258 36.7498 8.26783 36.8936C8.29494 36.9394 8.31778 36.9563 8.35804 36.9707C8.4145 36.991 8.55358 37.0188 8.81811 36.9707C8.81161 36.9719 8.81346 36.9709 8.82379 36.9654C8.86453 36.9439 9.03722 36.8526 9.35047 36.5488C9.70142 36.2085 10.1255 35.7043 10.6008 35.0441C11.1519 34.2785 11.7516 33.3313 12.3646 32.2419ZM28.4705 26.5623C28.9066 26.9695 29.3301 27.3166 29.7368 27.5959C30.5369 28.1453 31.1876 28.3737 31.6904 28.3737C32.4858 28.3737 33.2296 27.8621 33.5618 27.3163C33.706 27.0794 33.7118 26.9385 33.7095 26.8996C33.6911 26.8855 33.6367 26.8505 33.5169 26.8185C32.5035 26.5483 30.9706 26.2589 28.4705 26.5623Z" fill="#FF7261"/>
<path d="M37.2125 58.4084H34.5085V45.4185H39.7337C42.529 45.4185 44.3377 47.081 44.3377 49.6023C44.3377 52.1235 42.529 53.7678 39.8251 53.7678H37.2125V58.4084ZM37.2125 47.5012V51.685H39.3318C40.6838 51.685 41.5973 50.8446 41.5973 49.6023C41.5973 48.3416 40.702 47.5012 39.3318 47.5012H37.2125Z" fill="white"/>
<path d="M50.3667 58.4084H45.7809V45.4185H50.3849C54.5322 45.4185 56.7611 47.7753 56.7611 51.9225C56.7611 56.0515 54.5322 58.4084 50.3667 58.4084ZM48.4301 47.6474V56.1977H50.3484C52.7783 56.1977 54.0389 54.6448 54.0389 51.9225C54.0389 49.2003 52.7783 47.6474 50.3484 47.6474H48.4301Z" fill="white"/>
<path d="M61.1493 58.4084H58.4271V45.4185H66.0457V47.7753H61.1493V51.1735H64.9677V53.2745H61.1493V58.4084Z" fill="white"/>
<defs>
<linearGradient id="paint0_linear_17_4267" x1="32.526" y1="0" x2="32.526" y2="80" gradientUnits="userSpaceOnUse">
<stop offset="0.5" stop-color="#F8F9FA"/>
<stop offset="1" stop-color="#E4ECF3"/>
</linearGradient>
<linearGradient id="paint1_linear_17_4267" x1="49.6885" y1="33.7717" x2="49.6885" y2="70.0347" gradientUnits="userSpaceOnUse">
<stop stop-color="#FF7261"/>
<stop offset="1" stop-color="#CB3D2C"/>
</linearGradient>
</defs>
</svg>
