<svg width="71" height="80" viewBox="0 0 71 80" fill="none" xmlns="http://www.w3.org/2000/svg">
<path d="M0 6.6436C0 2.97444 2.97444 0 6.6436 0H49.2059L65.0519 16.1111V73.3564C65.0519 77.0256 62.0775 80 58.4083 80H6.6436C2.97444 80 0 77.0256 0 73.3564V6.6436Z" fill="url(#paint0_linear_17_4941)"/>
<path d="M0 6.6436C0 2.97444 2.97444 0 6.6436 0H49.2059L65.0519 16.1111V73.3564C65.0519 77.0256 62.0775 80 58.4083 80H6.6436C2.97444 80 0 77.0256 0 73.3564V6.6436Z" fill="#7A8CAF"/>
<path d="M65.052 16.0553L49.2734 0.276794V10.519C49.2734 13.5766 51.7521 16.0553 54.8098 16.0553H65.052Z" fill="#DBE5EE"/>
<path d="M36.5398 26.8512C36.5398 29.7529 35.6794 32.5895 34.0673 35.0021C32.4552 37.4148 30.1638 39.2953 27.483 40.4057C24.8022 41.5161 21.8523 41.8067 19.0063 41.2406C16.1604 40.6745 13.5462 39.2772 11.4944 37.2254C9.44258 35.1736 8.04527 32.5594 7.47918 29.7134C6.91308 26.8675 7.20362 23.9176 8.31406 21.2368C9.42449 18.5559 11.3049 16.2646 13.7176 14.6525C16.1303 13.0404 18.9668 12.1799 21.8686 12.1799V26.8512H36.5398Z" fill="#C4D2EF"/>
<path d="M25.4672 8.3045C27.3938 8.3045 29.3016 8.68399 31.0816 9.42129C32.8616 10.1586 34.479 11.2393 35.8413 12.6016C37.2037 13.964 38.2844 15.5813 39.0217 17.3613C39.759 19.1413 40.1384 21.0491 40.1384 22.9758H25.4672V8.3045Z" fill="#C4D2EF"/>
<path d="M70.5884 37.647C70.5884 35.5067 68.8533 33.7716 66.7129 33.7716H32.6645C30.5242 33.7716 28.7891 35.5067 28.7891 37.647V66.1592C28.7891 68.2995 30.5242 70.0346 32.6645 70.0346H66.7129C68.8533 70.0346 70.5884 68.2995 70.5884 66.1592V37.647Z" fill="url(#paint1_linear_17_4941)"/>
<path d="M37.1903 59.5156H34.4863V46.5257H39.7115C42.5068 46.5257 44.3155 48.1883 44.3155 50.7095C44.3155 53.2307 42.5068 54.875 39.8029 54.875H37.1903V59.5156ZM37.1903 48.6085V52.7923H39.3096C40.6616 52.7923 41.575 51.9519 41.575 50.7095C41.575 49.4489 40.6798 48.6085 39.3096 48.6085H37.1903Z" fill="white"/>
<path d="M48.4627 59.5156H45.7587V46.5257H50.9839C53.7792 46.5257 55.5879 48.1883 55.5879 50.7095C55.5879 53.2307 53.7792 54.875 51.0753 54.875H48.4627V59.5156ZM48.4627 48.6085V52.7923H50.582C51.9339 52.7923 52.8474 51.9519 52.8474 50.7095C52.8474 49.4489 51.9522 48.6085 50.582 48.6085H48.4627Z" fill="white"/>
<path d="M62.4398 59.5156H59.7176V48.8825H56.3012V46.5257H65.8563V48.8825H62.4398V59.5156Z" fill="white"/>
<defs>
<linearGradient id="paint0_linear_17_4941" x1="32.526" y1="0" x2="32.526" y2="80" gradientUnits="userSpaceOnUse">
<stop offset="0.5" stop-color="#F8F9FA"/>
<stop offset="1" stop-color="#E4ECF3"/>
</linearGradient>
<linearGradient id="paint1_linear_17_4941" x1="49.6887" y1="33.7716" x2="49.6887" y2="70.0346" gradientUnits="userSpaceOnUse">
<stop stop-color="#EA8C2E"/>
<stop offset="1" stop-color="#E24502"/>
</linearGradient>
</defs>
</svg>
