<svg width="71" height="80" viewBox="0 0 71 80" fill="none" xmlns="http://www.w3.org/2000/svg">
<path d="M0 6.6436C0 2.97444 2.97444 0 6.6436 0H49.2059L65.0519 16.1111V73.3564C65.0519 77.0256 62.0775 80 58.4083 80H6.6436C2.97444 80 0 77.0256 0 73.3564V6.6436Z" fill="url(#paint0_linear_17_4255)"/>
<path d="M65.052 16.0554L49.2734 0.276855V10.5191C49.2734 13.5767 51.7521 16.0554 54.8098 16.0554H65.052Z" fill="#879DB4"/>
<path d="M36.5398 26.8512C36.5398 29.7529 35.6794 32.5894 34.0673 35.0021C32.4552 37.4148 30.1638 39.2952 27.483 40.4057C24.8022 41.5161 21.8523 41.8066 19.0063 41.2405C16.1604 40.6744 13.5462 39.2771 11.4944 37.2253C9.44258 35.1735 8.04527 32.5593 7.47918 29.7134C6.91308 26.8674 7.20362 23.9175 8.31406 21.2367C9.42449 18.5559 11.3049 16.2645 13.7176 14.6524C16.1303 13.0403 18.9668 12.1799 21.8686 12.1799V26.8512H36.5398Z" fill="#595F6A"/>
<path d="M25.4672 8.30444C27.3938 8.30444 29.3016 8.68393 31.0816 9.42123C32.8616 10.1585 34.479 11.2392 35.8413 12.6016C37.2037 13.9639 38.2844 15.5813 39.0217 17.3613C39.759 19.1413 40.1384 21.0491 40.1384 22.9757H25.4672V8.30444Z" fill="#595F6A"/>
<path d="M70.5881 37.6472C70.5881 35.5068 68.853 33.7717 66.7127 33.7717H32.6642C30.5239 33.7717 28.7888 35.5068 28.7888 37.6472V66.1593C28.7888 68.2996 30.5239 70.0347 32.6643 70.0347H66.7127C68.853 70.0347 70.5881 68.2996 70.5881 66.1593V37.6472Z" fill="url(#paint1_linear_17_4255)"/>
<path d="M37.19 59.5155H34.4861V46.5256H39.7113C42.5066 46.5256 44.3153 48.1882 44.3153 50.7094C44.3153 53.2307 42.5066 54.875 39.8026 54.875H37.19V59.5155ZM37.19 48.6084V52.7922H39.3093C40.6613 52.7922 41.5748 51.9518 41.5748 50.7094C41.5748 49.4488 40.6796 48.6084 39.3093 48.6084H37.19Z" fill="white"/>
<path d="M48.4624 59.5155H45.7585V46.5256H50.9837C53.779 46.5256 55.5877 48.1882 55.5877 50.7094C55.5877 53.2307 53.779 54.875 51.075 54.875H48.4624V59.5155ZM48.4624 48.6084V52.7922H50.5817C51.9337 52.7922 52.8472 51.9518 52.8472 50.7094C52.8472 49.4488 51.952 48.6084 50.5817 48.6084H48.4624Z" fill="white"/>
<path d="M62.4396 59.5155H59.7174V48.8825H56.3009V46.5256H65.8561V48.8825H62.4396V59.5155Z" fill="white"/>
<defs>
<linearGradient id="paint0_linear_17_4255" x1="32.526" y1="0" x2="32.526" y2="80" gradientUnits="userSpaceOnUse">
<stop offset="0.5" stop-color="#F8F9FA"/>
<stop offset="1" stop-color="#E4ECF3"/>
</linearGradient>
<linearGradient id="paint1_linear_17_4255" x1="49.6885" y1="33.7717" x2="49.6885" y2="70.0347" gradientUnits="userSpaceOnUse">
<stop stop-color="#F69635"/>
<stop offset="1" stop-color="#EC5616"/>
</linearGradient>
</defs>
</svg>
