<svg width="97" height="80" viewBox="0 0 97 80" fill="none" xmlns="http://www.w3.org/2000/svg">
<g clip-path="url(#clip0_17_4250)">
<path d="M0 9.75807C0 5.74955 3.24955 2.5 7.25806 2.5H89.5161C93.5247 2.5 96.7742 5.74955 96.7742 9.75806V70.2419C96.7742 74.2505 93.5247 77.5 89.5161 77.5H7.25806C3.24955 77.5 0 74.2505 0 70.2419V9.75807Z" fill="url(#paint0_linear_17_4250)"/>
<path d="M65.8443 37.6419L41.6598 24.5692C39.6448 23.48 37.1975 24.9391 37.1975 27.2296V53.3751C37.1975 55.6655 39.6448 57.1246 41.6598 56.0355L65.8443 42.9627C67.9592 41.8196 67.9592 38.7851 65.8443 37.6419Z" fill="white"/>
<path d="M15.4233 67.5202C15.4233 66.3511 16.3711 65.4033 17.5403 65.4033H22.9838C24.153 65.4033 25.1008 66.3511 25.1008 67.5202V70.8469C25.1008 72.016 24.153 72.9638 22.9838 72.9638H17.5403C16.3711 72.9638 15.4233 72.016 15.4233 70.8469V67.5202Z" fill="#595F6A"/>
<path d="M15.4233 9.15331C15.4233 7.98416 16.3711 7.03638 17.5403 7.03638H22.9838C24.153 7.03638 25.1008 7.98416 25.1008 9.15331V12.4799C25.1008 13.6491 24.153 14.5969 22.9838 14.5969H17.5403C16.3711 14.5969 15.4233 13.6491 15.4233 12.4799V9.15331Z" fill="#595F6A"/>
<path d="M34.1733 67.5202C34.1733 66.3511 35.1211 65.4033 36.2903 65.4033H41.7338C42.903 65.4033 43.8508 66.3511 43.8508 67.5202V70.8469C43.8508 72.016 42.903 72.9638 41.7338 72.9638H36.2903C35.1211 72.9638 34.1733 72.016 34.1733 70.8469V67.5202Z" fill="#595F6A"/>
<path d="M34.1733 9.15331C34.1733 7.98416 35.1211 7.03638 36.2903 7.03638H41.7338C42.903 7.03638 43.8508 7.98416 43.8508 9.15331V12.4799C43.8508 13.6491 42.903 14.5969 41.7338 14.5969H36.2903C35.1211 14.5969 34.1733 13.6491 34.1733 12.4799V9.15331Z" fill="#595F6A"/>
<path d="M52.9233 67.5202C52.9233 66.3511 53.8711 65.4033 55.0403 65.4033H60.4838C61.653 65.4033 62.6008 66.3511 62.6008 67.5202V70.8469C62.6008 72.016 61.653 72.9638 60.4838 72.9638H55.0403C53.8711 72.9638 52.9233 72.016 52.9233 70.8469V67.5202Z" fill="#595F6A"/>
<path d="M52.9233 9.15331C52.9233 7.98416 53.8711 7.03638 55.0403 7.03638H60.4838C61.653 7.03638 62.6008 7.98416 62.6008 9.15331V12.4799C62.6008 13.6491 61.653 14.5969 60.4838 14.5969H55.0403C53.8711 14.5969 52.9233 13.6491 52.9233 12.4799V9.15331Z" fill="#595F6A"/>
<path d="M71.6733 67.5202C71.6733 66.3511 72.6211 65.4033 73.7903 65.4033H79.2338C80.403 65.4033 81.3508 66.3511 81.3508 67.5202V70.8469C81.3508 72.016 80.403 72.9638 79.2338 72.9638H73.7903C72.6211 72.9638 71.6733 72.016 71.6733 70.8469V67.5202Z" fill="#595F6A"/>
<path d="M71.6733 9.15331C71.6733 7.98416 72.6211 7.03638 73.7903 7.03638H79.2338C80.403 7.03638 81.3508 7.98416 81.3508 9.15331V12.4799C81.3508 13.6491 80.403 14.5969 79.2338 14.5969H73.7903C72.6211 14.5969 71.6733 13.6491 71.6733 12.4799V9.15331Z" fill="#595F6A"/>
</g>
<defs>
<linearGradient id="paint0_linear_17_4250" x1="48.3871" y1="2.5" x2="48.3871" y2="77.5" gradientUnits="userSpaceOnUse">
<stop stop-color="#FF7261"/>
<stop offset="1" stop-color="#CB3D2C"/>
</linearGradient>
<clipPath id="clip0_17_4250">
<rect width="96.7742" height="80" fill="white"/>
</clipPath>
</defs>
</svg>
