<svg width="71" height="80" viewBox="0 0 71 80" fill="none" xmlns="http://www.w3.org/2000/svg">
<path d="M5.53613 6.6436C5.53613 2.97444 8.51057 0 12.1797 0H54.7421L70.588 16.1111V73.3564C70.588 77.0256 67.6136 80 63.9444 80H12.1797C8.51057 80 5.53613 77.0256 5.53613 73.3564V6.6436Z" fill="#F8F9FA"/>
<path d="M5.53613 6.6436C5.53613 2.97444 8.51057 0 12.1797 0H54.7421L70.588 16.1111V73.3564C70.588 77.0256 67.6136 80 63.9444 80H12.1797C8.51057 80 5.53613 77.0256 5.53613 73.3564V6.6436Z" fill="#7A8CAF"/>
<path d="M14.6714 67.8201C14.6714 66.4441 15.7868 65.3287 17.1627 65.3287H58.962C60.338 65.3287 61.4534 66.4441 61.4534 67.8201C61.4534 69.196 60.338 70.3114 58.962 70.3114H17.1627C15.7868 70.3114 14.6714 69.196 14.6714 67.8201Z" fill="#C4D2EF"/>
<path d="M14.6714 54.8097C14.6714 53.4337 15.7868 52.3183 17.1627 52.3183H58.962C60.338 52.3183 61.4534 53.4337 61.4534 54.8097C61.4534 56.1856 60.338 57.301 58.962 57.301H17.1627C15.7868 57.301 14.6714 56.1856 14.6714 54.8097Z" fill="#C4D2EF"/>
<path d="M14.6714 41.7993C14.6714 40.4234 15.7868 39.308 17.1627 39.308H58.962C60.338 39.308 61.4534 40.4234 61.4534 41.7993C61.4534 43.1752 60.338 44.2907 58.962 44.2907H17.1627C15.7868 44.2907 14.6714 43.1752 14.6714 41.7993Z" fill="#C4D2EF"/>
<path d="M14.6714 28.5121C14.6714 27.1362 15.7868 26.0208 17.1627 26.0208H58.962C60.338 26.0208 61.4534 27.1362 61.4534 28.5121C61.4534 29.888 60.338 31.0035 58.962 31.0035H17.1627C15.7868 31.0035 14.6714 29.888 14.6714 28.5121Z" fill="#C4D2EF"/>
<path d="M14.6714 15.5017C14.6714 14.1258 15.7868 13.0104 17.1627 13.0104H44.8444C46.2203 13.0104 47.3357 14.1258 47.3357 15.5017C47.3357 16.8777 46.2203 17.9931 44.8444 17.9931H17.1627C15.7868 17.9931 14.6714 16.8777 14.6714 15.5017Z" fill="#C4D2EF"/>
<path d="M70.5881 16.0553L54.8096 0.276794V10.519C54.8096 13.5766 57.2883 16.0553 60.3459 16.0553H70.5881Z" fill="#DBE5EE"/>
<path d="M0 37.6471C0 35.5067 1.73509 33.7716 3.87543 33.7716H37.9239C40.0642 33.7716 41.7993 35.5067 41.7993 37.6471V66.1592C41.7993 68.2995 40.0642 70.0346 37.9239 70.0346H3.87543C1.73509 70.0346 0 68.2995 0 66.1592V37.6471Z" fill="url(#paint0_linear_17_4953)"/>
<path d="M0 37.6471C0 35.5067 1.73509 33.7716 3.87543 33.7716H37.9239C40.0642 33.7716 41.7993 35.5067 41.7993 37.6471V66.1592C41.7993 68.2995 40.0642 70.0346 37.9239 70.0346H3.87543C1.73509 70.0346 0 68.2995 0 66.1592V37.6471Z" fill="url(#paint1_linear_17_4953)"/>
<path d="M11.5542 58.9619H8.9145V48.6511H5.60156V46.3657H14.8672V48.6511H11.5542V58.9619Z" fill="white"/>
<path d="M18.4162 58.9619H15.4045L19.2666 52.3715L15.5285 46.3657H18.5402L20.9851 50.6707L23.5008 46.3657H26.5657L22.7036 52.3715L26.672 58.9619H23.6071L20.9851 54.3025L18.4162 58.9619Z" fill="white"/>
<path d="M33.1563 58.9619H30.5166V48.6511H27.2036V46.3657H36.4692V48.6511H33.1563V58.9619Z" fill="white"/>
<defs>
<linearGradient id="paint0_linear_17_4953" x1="20.8997" y1="33.7716" x2="20.8997" y2="70.0346" gradientUnits="userSpaceOnUse">
<stop stop-color="#9AADD2"/>
<stop offset="1" stop-color="#7A8CAF"/>
</linearGradient>
<linearGradient id="paint1_linear_17_4953" x1="20.8997" y1="33.7716" x2="20.8997" y2="70.0346" gradientUnits="userSpaceOnUse">
<stop stop-color="#2B5AB5"/>
<stop offset="1" stop-color="#1C386D"/>
</linearGradient>
</defs>
</svg>
