<svg width="71" height="80" viewBox="0 0 71 80" fill="none" xmlns="http://www.w3.org/2000/svg">
<path d="M5.53638 6.6436C5.53638 2.97444 8.51082 0 12.18 0H54.7423L70.5883 16.1111V73.3564C70.5883 77.0256 67.6138 80 63.9447 80H12.18C8.51082 80 5.53638 77.0256 5.53638 73.3564V6.6436Z" fill="#F8F9FA"/>
<path d="M14.6714 67.8199C14.6714 66.444 15.7868 65.3286 17.1627 65.3286H58.962C60.338 65.3286 61.4534 66.444 61.4534 67.8199C61.4534 69.1959 60.338 70.3113 58.962 70.3113H17.1627C15.7868 70.3113 14.6714 69.1959 14.6714 67.8199Z" fill="#595F6A"/>
<path d="M14.6714 54.8096C14.6714 53.4336 15.7868 52.3182 17.1627 52.3182H58.962C60.338 52.3182 61.4534 53.4336 61.4534 54.8096C61.4534 56.1855 60.338 57.3009 58.962 57.3009H17.1627C15.7868 57.3009 14.6714 56.1855 14.6714 54.8096Z" fill="#595F6A"/>
<path d="M14.6714 41.7992C14.6714 40.4232 15.7868 39.3078 17.1627 39.3078H58.962C60.338 39.3078 61.4534 40.4232 61.4534 41.7992C61.4534 43.1751 60.338 44.2905 58.962 44.2905H17.1627C15.7868 44.2905 14.6714 43.1751 14.6714 41.7992Z" fill="#595F6A"/>
<path d="M14.6714 28.512C14.6714 27.136 15.7868 26.0206 17.1627 26.0206H58.962C60.338 26.0206 61.4534 27.136 61.4534 28.512C61.4534 29.8879 60.338 31.0033 58.962 31.0033H17.1627C15.7868 31.0033 14.6714 29.8879 14.6714 28.512Z" fill="#595F6A"/>
<path d="M14.6714 15.5016C14.6714 14.1257 15.7868 13.0103 17.1627 13.0103H44.8444C46.2203 13.0103 47.3357 14.1257 47.3357 15.5016C47.3357 16.8775 46.2203 17.993 44.8444 17.993H17.1627C15.7868 17.993 14.6714 16.8775 14.6714 15.5016Z" fill="#595F6A"/>
<path d="M70.5881 16.0554L54.8096 0.276855V10.5191C54.8096 13.5767 57.2883 16.0554 60.3459 16.0554H70.5881Z" fill="#879DB4"/>
<path d="M0 37.6472C0 35.5068 1.73509 33.7717 3.87543 33.7717H37.9239C40.0642 33.7717 41.7993 35.5068 41.7993 37.6472V66.1593C41.7993 68.2996 40.0642 70.0347 37.9239 70.0347H3.87543C1.73509 70.0347 0 68.2996 0 66.1593V37.6472Z" fill="url(#paint0_linear_17_4273)"/>
<path d="M11.554 58.962H8.91426V48.6511H5.60132V46.3657H14.8669V48.6511H11.554V58.962Z" fill="white"/>
<path d="M18.416 58.962H15.4042L19.2664 52.3715L15.5282 46.3657H18.54L20.9848 50.6708L23.5006 46.3657H26.5655L22.7033 52.3715L26.6718 58.962H23.6069L20.9848 54.3026L18.416 58.962Z" fill="white"/>
<path d="M33.1561 58.962H30.5163V48.6511H27.2034V46.3657H36.469V48.6511H33.1561V58.962Z" fill="white"/>
<defs>
<linearGradient id="paint0_linear_17_4273" x1="20.8997" y1="33.7717" x2="20.8997" y2="70.0347" gradientUnits="userSpaceOnUse">
<stop stop-color="#9AADD2"/>
<stop offset="1" stop-color="#7A8CAF"/>
</linearGradient>
</defs>
</svg>
