<svg width="98" height="80" viewBox="0 0 98 80" fill="none" xmlns="http://www.w3.org/2000/svg">
<g clip-path="url(#clip0_17_4987)">
<path d="M0.906738 9.75807C0.906738 5.74955 4.15628 2.5 8.1648 2.5H90.4229C94.4314 2.5 97.6809 5.74955 97.6809 9.75806V70.2419C97.6809 74.2505 94.4314 77.5 90.4229 77.5H8.1648C4.15628 77.5 0.906738 74.2505 0.906738 70.2419V9.75807Z" fill="url(#paint0_linear_17_4987)"/>
<path d="M0.906738 9.75807C0.906738 5.74955 4.15628 2.5 8.1648 2.5H90.4229C94.4314 2.5 97.6809 5.74955 97.6809 9.75806V70.2419C97.6809 74.2505 94.4314 77.5 90.4229 77.5H8.1648C4.15628 77.5 0.906738 74.2505 0.906738 70.2419V9.75807Z" fill="url(#paint1_linear_17_4987)"/>
<path d="M66.7513 37.6421L42.5667 24.5693C40.5518 23.4802 38.1045 24.9392 38.1045 27.2297V53.3752C38.1045 55.6657 40.5518 57.1247 42.5667 56.0356L66.7513 42.9629C68.8661 41.8197 68.8661 38.7852 66.7513 37.6421Z" fill="#F8F9FA"/>
<path d="M16.3301 67.5201C16.3301 66.351 17.2779 65.4032 18.447 65.4032H23.8906C25.0597 65.4032 26.0075 66.351 26.0075 67.5201V70.8467C26.0075 72.0159 25.0597 72.9637 23.8906 72.9637H18.447C17.2779 72.9637 16.3301 72.0159 16.3301 70.8467V67.5201Z" fill="#9AADD2"/>
<path d="M16.3301 9.15319C16.3301 7.98404 17.2779 7.03625 18.447 7.03625H23.8906C25.0597 7.03625 26.0075 7.98404 26.0075 9.15319V12.4798C26.0075 13.649 25.0597 14.5967 23.8906 14.5967H18.447C17.2779 14.5967 16.3301 13.649 16.3301 12.4798V9.15319Z" fill="#9AADD2"/>
<path d="M35.0801 67.5201C35.0801 66.351 36.0279 65.4032 37.197 65.4032H42.6406C43.8097 65.4032 44.7575 66.351 44.7575 67.5201V70.8467C44.7575 72.0159 43.8097 72.9637 42.6406 72.9637H37.197C36.0279 72.9637 35.0801 72.0159 35.0801 70.8467V67.5201Z" fill="#9AADD2"/>
<path d="M35.0801 9.15319C35.0801 7.98404 36.0279 7.03625 37.197 7.03625H42.6406C43.8097 7.03625 44.7575 7.98404 44.7575 9.15319V12.4798C44.7575 13.649 43.8097 14.5967 42.6406 14.5967H37.197C36.0279 14.5967 35.0801 13.649 35.0801 12.4798V9.15319Z" fill="#9AADD2"/>
<path d="M53.8301 67.5201C53.8301 66.351 54.7779 65.4032 55.947 65.4032H61.3906C62.5597 65.4032 63.5075 66.351 63.5075 67.5201V70.8467C63.5075 72.0159 62.5597 72.9637 61.3906 72.9637H55.947C54.7779 72.9637 53.8301 72.0159 53.8301 70.8467V67.5201Z" fill="#9AADD2"/>
<path d="M53.8301 9.15319C53.8301 7.98404 54.7779 7.03625 55.947 7.03625H61.3906C62.5597 7.03625 63.5075 7.98404 63.5075 9.15319V12.4798C63.5075 13.649 62.5597 14.5967 61.3906 14.5967H55.947C54.7779 14.5967 53.8301 13.649 53.8301 12.4798V9.15319Z" fill="#9AADD2"/>
<path d="M72.5801 67.5201C72.5801 66.351 73.5279 65.4032 74.697 65.4032H80.1406C81.3097 65.4032 82.2575 66.351 82.2575 67.5201V70.8467C82.2575 72.0159 81.3097 72.9637 80.1406 72.9637H74.697C73.5279 72.9637 72.5801 72.0159 72.5801 70.8467V67.5201Z" fill="#9AADD2"/>
<path d="M72.5801 9.15319C72.5801 7.98404 73.5279 7.03625 74.697 7.03625H80.1406C81.3097 7.03625 82.2575 7.98404 82.2575 9.15319V12.4798C82.2575 13.649 81.3097 14.5967 80.1406 14.5967H74.697C73.5279 14.5967 72.5801 13.649 72.5801 12.4798V9.15319Z" fill="#9AADD2"/>
</g>
<defs>
<linearGradient id="paint0_linear_17_4987" x1="49.2938" y1="2.5" x2="49.2938" y2="77.5" gradientUnits="userSpaceOnUse">
<stop stop-color="#FF7261"/>
<stop offset="1" stop-color="#CB3D2C"/>
</linearGradient>
<linearGradient id="paint1_linear_17_4987" x1="49.2938" y1="2.5" x2="49.2938" y2="77.5" gradientUnits="userSpaceOnUse">
<stop stop-color="#7A8CAF"/>
<stop offset="1" stop-color="#546C99"/>
</linearGradient>
<clipPath id="clip0_17_4987">
<rect width="96.7742" height="80" fill="white" transform="translate(0.906738)"/>
</clipPath>
</defs>
</svg>
