<svg width="71" height="80" viewBox="0 0 71 80" fill="none" xmlns="http://www.w3.org/2000/svg">
<path d="M5.53638 6.6436C5.53638 2.97444 8.51082 0 12.18 0H54.7423L70.5883 16.1111V73.3564C70.5883 77.0256 67.6138 80 63.9447 80H12.18C8.51082 80 5.53638 77.0256 5.53638 73.3564V6.6436Z" fill="url(#paint0_linear_17_4244)"/>
<path d="M70.5884 16.0554L54.8098 0.276855V10.5191C54.8098 13.5767 57.2885 16.0554 60.3461 16.0554H70.5884Z" fill="#879DB4"/>
<path d="M14.6714 67.8202C14.6714 66.4443 15.7868 65.3288 17.1627 65.3288H58.962C60.338 65.3288 61.4534 66.4443 61.4534 67.8202C61.4534 69.1961 60.338 70.3115 58.962 70.3115H17.1627C15.7868 70.3115 14.6714 69.1961 14.6714 67.8202Z" fill="#595F6A"/>
<path d="M14.6714 54.8098C14.6714 53.4339 15.7868 52.3185 17.1627 52.3185H58.962C60.338 52.3185 61.4534 53.4339 61.4534 54.8098C61.4534 56.1857 60.338 57.3012 58.962 57.3012H17.1627C15.7868 57.3012 14.6714 56.1857 14.6714 54.8098Z" fill="#595F6A"/>
<path d="M14.6714 41.7994C14.6714 40.4235 15.7868 39.3081 17.1627 39.3081H58.962C60.338 39.3081 61.4534 40.4235 61.4534 41.7994C61.4534 43.1754 60.338 44.2908 58.962 44.2908H17.1627C15.7868 44.2908 14.6714 43.1754 14.6714 41.7994Z" fill="#595F6A"/>
<path d="M14.6714 28.5122C14.6714 27.1363 15.7868 26.0209 17.1627 26.0209H58.962C60.338 26.0209 61.4534 27.1363 61.4534 28.5122C61.4534 29.8882 60.338 31.0036 58.962 31.0036H17.1627C15.7868 31.0036 14.6714 29.8882 14.6714 28.5122Z" fill="#595F6A"/>
<path d="M14.6714 15.5018C14.6714 14.1259 15.7868 13.0105 17.1627 13.0105H44.8444C46.2203 13.0105 47.3357 14.1259 47.3357 15.5018C47.3357 16.8778 46.2203 17.9932 44.8444 17.9932H17.1627C15.7868 17.9932 14.6714 16.8778 14.6714 15.5018Z" fill="#595F6A"/>
<path d="M0 37.6472C0 35.5068 1.73509 33.7717 3.87543 33.7717H37.9239C40.0642 33.7717 41.7993 35.5068 41.7993 37.6472V66.1593C41.7993 68.2996 40.0642 70.0347 37.9239 70.0347H3.87543C1.73509 70.0347 0 68.2996 0 66.1593V37.6472Z" fill="url(#paint1_linear_17_4244)"/>
<path d="M17.6566 61.4532H12.5543L7.8772 42.5588H11.9165L15.132 57.4671H15.1852L18.4007 42.5588H23.3435L26.6121 57.4671H26.6653L29.8276 42.5588H33.8404L29.1899 61.4532H24.0876L20.9252 46.7576H20.8721L17.6566 61.4532Z" fill="white"/>
<defs>
<linearGradient id="paint0_linear_17_4244" x1="38.0623" y1="0" x2="38.0623" y2="80" gradientUnits="userSpaceOnUse">
<stop offset="0.5" stop-color="#F8F9FA"/>
<stop offset="1" stop-color="#E4ECF3"/>
</linearGradient>
<linearGradient id="paint1_linear_17_4244" x1="20.8997" y1="69.6722" x2="20.8997" y2="33.4092" gradientUnits="userSpaceOnUse">
<stop stop-color="#0080DC"/>
<stop offset="1" stop-color="#0D9EFF"/>
</linearGradient>
</defs>
</svg>
