<svg width="71" height="80" viewBox="0 0 71 80" fill="none" xmlns="http://www.w3.org/2000/svg">
<g clip-path="url(#clip0_17_4934)">
<path d="M5.53662 6.6436C5.53662 2.97444 8.51106 0 12.1802 0H54.7425L70.5885 16.1111V73.3564C70.5885 77.0256 67.6141 80 63.9449 80H12.1802C8.51106 80 5.53662 77.0256 5.53662 73.3564V6.6436Z" fill="url(#paint0_linear_17_4934)"/>
<path d="M5.53662 6.6436C5.53662 2.97444 8.51106 0 12.1802 0H54.7425L70.5885 16.1111V73.3564C70.5885 77.0256 67.6141 80 63.9449 80H12.1802C8.51106 80 5.53662 77.0256 5.53662 73.3564V6.6436Z" fill="#7A8CAF"/>
<path d="M70.5886 16.0553L54.8101 0.276794V10.519C54.8101 13.5766 57.2888 16.0553 60.3464 16.0553H70.5886Z" fill="#DBE5EE"/>
<path d="M14.6714 67.8201C14.6714 66.4441 15.7868 65.3287 17.1627 65.3287H58.962C60.338 65.3287 61.4534 66.4441 61.4534 67.8201C61.4534 69.196 60.338 70.3114 58.962 70.3114H17.1627C15.7868 70.3114 14.6714 69.196 14.6714 67.8201Z" fill="#C4D2EF"/>
<path d="M14.6714 54.8097C14.6714 53.4337 15.7868 52.3183 17.1627 52.3183H58.962C60.338 52.3183 61.4534 53.4337 61.4534 54.8097C61.4534 56.1856 60.338 57.301 58.962 57.301H17.1627C15.7868 57.301 14.6714 56.1856 14.6714 54.8097Z" fill="#C4D2EF"/>
<path d="M14.6714 41.7993C14.6714 40.4234 15.7868 39.308 17.1627 39.308H58.962C60.338 39.308 61.4534 40.4234 61.4534 41.7993C61.4534 43.1752 60.338 44.2907 58.962 44.2907H17.1627C15.7868 44.2907 14.6714 43.1752 14.6714 41.7993Z" fill="#C4D2EF"/>
<path d="M14.6714 28.5121C14.6714 27.1362 15.7868 26.0208 17.1627 26.0208H58.962C60.338 26.0208 61.4534 27.1362 61.4534 28.5121C61.4534 29.888 60.338 31.0035 58.962 31.0035H17.1627C15.7868 31.0035 14.6714 29.888 14.6714 28.5121Z" fill="#C4D2EF"/>
<path d="M14.6714 15.5017C14.6714 14.1258 15.7868 13.0104 17.1627 13.0104H44.8444C46.2203 13.0104 47.3357 14.1258 47.3357 15.5017C47.3357 16.8777 46.2203 17.9931 44.8444 17.9931H17.1627C15.7868 17.9931 14.6714 16.8777 14.6714 15.5017Z" fill="#C4D2EF"/>
<path d="M0 37.647C0 35.5067 1.73509 33.7716 3.87543 33.7716H37.9239C40.0642 33.7716 41.7993 35.5067 41.7993 37.647V66.1592C41.7993 68.2995 40.0642 70.0346 37.9239 70.0346H3.87543C1.73509 70.0346 0 68.2995 0 66.1592V37.647Z" fill="url(#paint1_linear_17_4934)"/>
<path d="M17.6563 61.4533H12.554L7.87695 42.5589H11.9163L15.1318 57.4671H15.1849L18.4004 42.5589H23.3433L26.6119 57.4671H26.6651L29.8274 42.5589H33.8401L29.1896 61.4533H24.0873L20.925 46.7577H20.8718L17.6563 61.4533Z" fill="white"/>
</g>
<defs>
<linearGradient id="paint0_linear_17_4934" x1="38.0626" y1="0" x2="38.0626" y2="80" gradientUnits="userSpaceOnUse">
<stop offset="0.5" stop-color="#F8F9FA"/>
<stop offset="1" stop-color="#E4ECF3"/>
</linearGradient>
<linearGradient id="paint1_linear_17_4934" x1="20.8997" y1="69.672" x2="20.8997" y2="33.409" gradientUnits="userSpaceOnUse">
<stop stop-color="#005FA4"/>
<stop offset="1" stop-color="#008EED"/>
</linearGradient>
<clipPath id="clip0_17_4934">
<rect width="70.5882" height="80" fill="white"/>
</clipPath>
</defs>
</svg>
