<svg width="71" height="80" viewBox="0 0 71 80" fill="none" xmlns="http://www.w3.org/2000/svg">
<path d="M5.53613 6.6436C5.53613 2.97444 8.51057 0 12.1797 0H54.7421L70.588 16.1111V73.3564C70.588 77.0256 67.6136 80 63.9444 80H12.1797C8.51057 80 5.53613 77.0256 5.53613 73.3564V6.6436Z" fill="url(#paint0_linear_17_4965)"/>
<path d="M5.53613 6.6436C5.53613 2.97444 8.51057 0 12.1797 0H54.7421L70.588 16.1111V73.3564C70.588 77.0256 67.6136 80 63.9444 80H12.1797C8.51057 80 5.53613 77.0256 5.53613 73.3564V6.6436Z" fill="#7A8CAF"/>
<path d="M70.5881 16.0553L54.8096 0.276794V10.519C54.8096 13.5766 57.2883 16.0553 60.3459 16.0553H70.5881Z" fill="#DBE5EE"/>
<path d="M14.6714 19.9308C14.6714 18.7077 15.6629 17.7162 16.8859 17.7162H33.2181C34.4412 17.7162 35.4326 18.7077 35.4326 19.9308V21.038C35.4326 22.2611 34.4412 23.2526 33.2181 23.2526H16.8859C15.6629 23.2526 14.6714 22.2611 14.6714 21.038V19.9308Z" fill="#C4D2EF"/>
<path d="M14.6714 34.8789C14.6714 33.6558 15.6629 32.6643 16.8859 32.6643H33.2181C34.4412 32.6643 35.4326 33.6558 35.4326 34.8789V35.9861C35.4326 37.2092 34.4412 38.2007 33.2181 38.2007H16.8859C15.6629 38.2007 14.6714 37.2092 14.6714 35.9861V34.8789Z" fill="#C4D2EF"/>
<path d="M14.6714 49.827C14.6714 48.6039 15.6629 47.6124 16.8859 47.6124H33.2181C34.4412 47.6124 35.4326 48.6039 35.4326 49.827V50.9342C35.4326 52.1573 34.4412 53.1488 33.2181 53.1488H16.8859C15.6629 53.1488 14.6714 52.1573 14.6714 50.9342V49.827Z" fill="#C4D2EF"/>
<path d="M14.6714 64.7751C14.6714 63.552 15.6629 62.5605 16.8859 62.5605H33.2181C34.4412 62.5605 35.4326 63.552 35.4326 64.7751V65.8823C35.4326 67.1054 34.4412 68.0969 33.2181 68.0969H16.8859C15.6629 68.0969 14.6714 67.1054 14.6714 65.8823V64.7751Z" fill="#C4D2EF"/>
<path d="M40.6921 19.9308C40.6921 18.7077 41.6836 17.7162 42.9067 17.7162H59.2389C60.4619 17.7162 61.4534 18.7077 61.4534 19.9308V21.038C61.4534 22.2611 60.4619 23.2526 59.2389 23.2526H42.9067C41.6836 23.2526 40.6921 22.2611 40.6921 21.038V19.9308Z" fill="#C4D2EF"/>
<path d="M40.6921 34.8789C40.6921 33.6558 41.6836 32.6643 42.9067 32.6643H59.2389C60.4619 32.6643 61.4534 33.6558 61.4534 34.8789V35.9861C61.4534 37.2092 60.4619 38.2007 59.2389 38.2007H42.9067C41.6836 38.2007 40.6921 37.2092 40.6921 35.9861V34.8789Z" fill="#C4D2EF"/>
<path d="M40.6921 49.827C40.6921 48.6039 41.6836 47.6124 42.9067 47.6124H59.2389C60.4619 47.6124 61.4534 48.6039 61.4534 49.827V50.9342C61.4534 52.1573 60.4619 53.1488 59.2389 53.1488H42.9067C41.6836 53.1488 40.6921 52.1573 40.6921 50.9342V49.827Z" fill="#C4D2EF"/>
<path d="M40.6921 64.7751C40.6921 63.552 41.6836 62.5605 42.9067 62.5605H59.2389C60.4619 62.5605 61.4534 63.552 61.4534 64.7751V65.8823C61.4534 67.1054 60.4619 68.0969 59.2389 68.0969H42.9067C41.6836 68.0969 40.6921 67.1054 40.6921 65.8823V64.7751Z" fill="#C4D2EF"/>
<path d="M0 37.6471C0 35.5067 1.73509 33.7716 3.87543 33.7716H37.9239C40.0642 33.7716 41.7993 35.5067 41.7993 37.6471V66.1592C41.7993 68.2995 40.0642 70.0346 37.9239 70.0346H3.87543C1.73509 70.0346 0 68.2995 0 66.1592V37.6471Z" fill="url(#paint1_linear_17_4965)"/>
<path d="M7.87993 57.8547H4.86816L8.73031 51.2642L4.99218 45.2584H8.00394L10.4488 49.5634L12.9645 45.2584H16.0294L12.1673 51.2642L16.1357 57.8547H13.0708L10.4488 53.1953L7.87993 57.8547Z" fill="white"/>
<path d="M25.4369 57.8547H18.2264V45.2584H20.8661V55.5693H25.4369V57.8547Z" fill="white"/>
<path d="M31.9465 58.2267C29.0588 58.2267 27.0568 56.5968 26.8974 53.9571L29.3599 53.5496C29.4308 55.1618 30.5469 56.1893 32.0528 56.1893C33.3815 56.1893 34.2142 55.4807 34.2142 54.4886C34.2142 53.6736 33.665 53.1598 32.354 52.7701L30.7064 52.3095C28.3855 51.7071 27.358 50.6087 27.358 48.7131C27.358 46.4454 29.0056 44.8864 31.6985 44.8864C34.161 44.8864 35.8795 46.3391 36.039 48.5891L33.665 49.0851C33.5941 47.7564 32.7969 46.906 31.663 46.906C30.5824 46.906 29.8914 47.5792 29.8914 48.5005C29.8914 49.3154 30.3875 49.8115 31.6276 50.1481L33.2575 50.6087C35.6669 51.2288 36.7476 52.3449 36.7476 54.2583C36.7476 56.6145 34.9051 58.2267 31.9465 58.2267Z" fill="white"/>
<defs>
<linearGradient id="paint0_linear_17_4965" x1="38.0621" y1="0" x2="38.0621" y2="80" gradientUnits="userSpaceOnUse">
<stop offset="0.5" stop-color="#F8F9FA"/>
<stop offset="1" stop-color="#E4ECF3"/>
</linearGradient>
<linearGradient id="paint1_linear_17_4965" x1="20.8997" y1="33.7716" x2="20.8997" y2="70.0346" gradientUnits="userSpaceOnUse">
<stop stop-color="#00B36D"/>
<stop offset="1" stop-color="#007443"/>
</linearGradient>
</defs>
</svg>
