<svg width="71" height="80" viewBox="0 0 71 80" fill="none" xmlns="http://www.w3.org/2000/svg">
<path d="M5.53638 6.6436C5.53638 2.97444 8.51082 0 12.18 0H54.7423L70.5883 16.1111V73.3564C70.5883 77.0256 67.6138 80 63.9447 80H12.18C8.51082 80 5.53638 77.0256 5.53638 73.3564V6.6436Z" fill="url(#paint0_linear_17_4284)"/>
<path d="M70.5881 16.0554L54.8096 0.276855V10.5191C54.8096 13.5767 57.2883 16.0554 60.3459 16.0554H70.5881Z" fill="#879DB4"/>
<path d="M14.6714 19.9308C14.6714 18.7078 15.6629 17.7163 16.8859 17.7163H33.2181C34.4412 17.7163 35.4326 18.7078 35.4326 19.9308V21.0381C35.4326 22.2612 34.4412 23.2526 33.2181 23.2526H16.8859C15.6629 23.2526 14.6714 22.2612 14.6714 21.0381V19.9308Z" fill="#595F6A"/>
<path d="M14.6714 34.8789C14.6714 33.6559 15.6629 32.6644 16.8859 32.6644H33.2181C34.4412 32.6644 35.4326 33.6559 35.4326 34.8789V35.9862C35.4326 37.2093 34.4412 38.2007 33.2181 38.2007H16.8859C15.6629 38.2007 14.6714 37.2093 14.6714 35.9862V34.8789Z" fill="#595F6A"/>
<path d="M14.6714 49.827C14.6714 48.604 15.6629 47.6125 16.8859 47.6125H33.2181C34.4412 47.6125 35.4326 48.604 35.4326 49.827V50.9343C35.4326 52.1574 34.4412 53.1488 33.2181 53.1488H16.8859C15.6629 53.1488 14.6714 52.1574 14.6714 50.9343V49.827Z" fill="#595F6A"/>
<path d="M14.6714 64.7751C14.6714 63.5521 15.6629 62.5606 16.8859 62.5606H33.2181C34.4412 62.5606 35.4326 63.5521 35.4326 64.7751V65.8824C35.4326 67.1055 34.4412 68.0969 33.2181 68.0969H16.8859C15.6629 68.0969 14.6714 67.1055 14.6714 65.8824V64.7751Z" fill="#595F6A"/>
<path d="M40.6921 19.9308C40.6921 18.7078 41.6836 17.7163 42.9067 17.7163H59.2389C60.4619 17.7163 61.4534 18.7078 61.4534 19.9308V21.0381C61.4534 22.2612 60.4619 23.2526 59.2389 23.2526H42.9067C41.6836 23.2526 40.6921 22.2612 40.6921 21.0381V19.9308Z" fill="#595F6A"/>
<path d="M40.6921 34.8789C40.6921 33.6559 41.6836 32.6644 42.9067 32.6644H59.2389C60.4619 32.6644 61.4534 33.6559 61.4534 34.8789V35.9862C61.4534 37.2093 60.4619 38.2007 59.2389 38.2007H42.9067C41.6836 38.2007 40.6921 37.2093 40.6921 35.9862V34.8789Z" fill="#595F6A"/>
<path d="M40.6921 49.827C40.6921 48.604 41.6836 47.6125 42.9067 47.6125H59.2389C60.4619 47.6125 61.4534 48.604 61.4534 49.827V50.9343C61.4534 52.1574 60.4619 53.1488 59.2389 53.1488H42.9067C41.6836 53.1488 40.6921 52.1574 40.6921 50.9343V49.827Z" fill="#595F6A"/>
<path d="M40.6921 64.7751C40.6921 63.5521 41.6836 62.5606 42.9067 62.5606H59.2389C60.4619 62.5606 61.4534 63.5521 61.4534 64.7751V65.8824C61.4534 67.1055 60.4619 68.0969 59.2389 68.0969H42.9067C41.6836 68.0969 40.6921 67.1055 40.6921 65.8824V64.7751Z" fill="#595F6A"/>
<path d="M0 37.6472C0 35.5068 1.73509 33.7717 3.87543 33.7717H37.9239C40.0642 33.7717 41.7993 35.5068 41.7993 37.6472V66.1593C41.7993 68.2996 40.0642 70.0347 37.9239 70.0347H3.87543C1.73509 70.0347 0 68.2996 0 66.1593V37.6472Z" fill="url(#paint1_linear_17_4284)"/>
<path d="M7.87968 57.8548H4.86792L8.73007 51.2643L4.99193 45.2585H8.0037L10.4485 49.5636L12.9643 45.2585H16.0292L12.167 51.2643L16.1355 57.8548H13.0705L10.4485 53.1954L7.87968 57.8548Z" fill="white"/>
<path d="M25.4366 57.8548H18.2261V45.2585H20.8658V55.5694H25.4366V57.8548Z" fill="white"/>
<path d="M31.9463 58.2268C29.0585 58.2268 27.0566 56.5969 26.8971 53.9572L29.3597 53.5497C29.4306 55.1619 30.5467 56.1895 32.0526 56.1895C33.3813 56.1895 34.2139 55.4808 34.2139 54.4887C34.2139 53.6737 33.6647 53.16 32.3537 52.7702L30.7061 52.3096C28.3853 51.7072 27.3577 50.6088 27.3577 48.7132C27.3577 46.4455 29.0054 44.8865 31.6982 44.8865C34.1608 44.8865 35.8793 46.3392 36.0387 48.5892L33.6647 49.0852C33.5939 47.7565 32.7966 46.9061 31.6628 46.9061C30.5821 46.9061 29.8912 47.5793 29.8912 48.5006C29.8912 49.3155 30.3872 49.8116 31.6274 50.1482L33.2573 50.6088C35.6667 51.2289 36.7474 52.345 36.7474 54.2584C36.7474 56.6146 34.9049 58.2268 31.9463 58.2268Z" fill="white"/>
<defs>
<linearGradient id="paint0_linear_17_4284" x1="38.0623" y1="0" x2="38.0623" y2="80" gradientUnits="userSpaceOnUse">
<stop offset="0.5" stop-color="#F8F9FA"/>
<stop offset="1" stop-color="#E4ECF3"/>
</linearGradient>
<linearGradient id="paint1_linear_17_4284" x1="20.8997" y1="33.7717" x2="20.8997" y2="70.0347" gradientUnits="userSpaceOnUse">
<stop stop-color="#0ACE82"/>
<stop offset="1" stop-color="#00AF68"/>
</linearGradient>
</defs>
</svg>
